<svg width="16" height="18" viewBox="0 0 16 18" fill="none" xmlns="http://www.w3.org/2000/svg">
<g clip-path="url(#clip0_902_16)">
<path d="M15.9922 9.16863C15.9922 8.43117 15.9377 7.89303 15.8199 7.33496H8.15918V10.6634H12.6559C12.5652 11.4906 12.0757 12.7363 10.9877 13.5734L10.9725 13.6848L13.3947 15.7475L13.5625 15.7659C15.1037 14.2013 15.9922 11.8992 15.9922 9.16863Z" fill="#4285F4"/>
<path d="M8.15918 17.9384C10.3622 17.9384 12.2116 17.1411 13.5625 15.7659L10.9877 13.5734C10.2987 14.1015 9.37399 14.4703 8.15918 14.4703C6.00149 14.4703 4.17018 12.9057 3.51737 10.7432L3.42168 10.7521L0.903055 12.8947L0.870117 12.9954C2.21187 15.9252 4.96793 17.9384 8.15918 17.9384Z" fill="#34A853"/>
<path d="M3.51756 10.7431C3.34531 10.185 3.24563 9.58704 3.24563 8.9692C3.24563 8.35129 3.34531 7.75338 3.5085 7.19531L3.50394 7.07645L0.95375 4.89941L0.870313 4.94304C0.317313 6.15886 0 7.52419 0 8.9692C0 10.4142 0.317313 11.7795 0.870313 12.9953L3.51756 10.7431Z" fill="#FBBC05"/>
<path d="M8.15918 3.46802C9.6913 3.46802 10.7248 4.19551 11.3141 4.80346L13.6169 2.33196C12.2026 0.886946 10.3622 0 8.15918 0C4.96793 0 2.21187 2.01305 0.870117 4.94292L3.5083 7.19519C4.17018 5.03265 6.00149 3.46802 8.15918 3.46802Z" fill="#EB4335"/>
</g>
<defs>
<clipPath id="clip0_902_16">
<rect width="16" height="18" fill="white"/>
</clipPath>
</defs>
</svg>
